<svg id="svg" version="1.1" xmlns="http://www.w3.org/2000/svg" xmlns:xlink="http://www.w3.org/1999/xlink" width="400" height="400" viewBox="0, 0, 400,400"><g id="svgg"><path id="path0" d="M3.756 81.409 L 2.678 82.167 2.698 87.333 C 2.709 90.175,2.936 96.400,3.201 101.167 C 3.467 105.933,3.820 112.233,3.984 115.167 C 4.282 120.469,4.961 140.720,5.716 166.833 C 6.255 185.490,6.254 216.852,5.714 229.500 C 5.174 242.160,3.731 269.170,3.329 274.167 C 2.702 281.947,2.515 315.219,3.093 316.101 C 4.504 318.255,8.435 318.433,33.333 317.470 C 50.640 316.801,75.357 316.814,109.476 317.511 C 148.283 318.303,166.830 317.942,168.000 316.371 C 168.092 316.248,169.442 315.790,171.000 315.352 C 174.207 314.453,179.082 312.679,179.333 312.321 C 179.425 312.190,181.000 311.306,182.833 310.357 C 188.142 307.608,193.042 303.902,198.333 298.633 C 201.619 295.361,206.992 289.048,207.006 288.444 C 207.010 288.291,207.535 287.568,208.173 286.837 C 208.811 286.106,209.579 284.981,209.880 284.337 C 210.181 283.693,210.923 282.413,211.529 281.493 C 212.835 279.507,216.087 272.493,215.989 271.871 C 215.964 271.708,216.091 271.483,216.271 271.371 C 216.452 271.258,217.055 269.592,217.612 267.667 C 218.471 264.694,218.934 262.631,220.231 256.000 C 220.438 254.944,220.419 234.119,220.210 233.000 C 218.940 226.189,218.511 224.295,217.323 220.250 C 216.905 218.829,216.428 217.667,216.262 217.667 C 216.096 217.667,216.064 217.500,216.190 217.296 C 216.316 217.092,216.281 216.830,216.112 216.713 C 215.944 216.596,215.212 215.186,214.486 213.581 C 213.761 211.976,212.755 210.176,212.251 209.581 C 211.747 208.986,211.335 208.370,211.334 208.211 C 211.333 207.714,208.929 204.602,206.595 202.075 C 204.422 199.723,203.021 198.431,200.005 196.000 C 199.209 195.358,197.870 194.205,197.029 193.437 L 195.500 192.041 196.540 190.937 C 197.112 190.330,198.131 188.957,198.805 187.886 C 199.479 186.816,200.324 185.625,200.682 185.240 C 201.040 184.856,201.333 184.416,201.333 184.263 C 201.333 183.901,202.945 181.377,203.790 180.417 C 204.153 180.004,204.311 179.664,204.141 179.662 C 203.972 179.659,203.985 179.546,204.170 179.412 C 204.629 179.078,206.333 176.422,206.333 176.041 C 206.333 175.872,206.821 175.006,207.417 174.117 C 208.502 172.498,211.667 165.956,211.667 165.332 C 211.667 165.149,211.793 165.000,211.947 165.000 C 212.274 165.000,213.757 160.289,214.571 156.667 C 215.340 153.246,215.323 144.514,214.538 139.333 C 213.915 135.222,212.399 128.607,212.016 128.333 C 211.888 128.242,211.297 126.776,210.704 125.077 C 205.853 111.189,196.372 99.927,184.276 93.684 C 182.502 92.769,180.971 91.890,180.873 91.730 C 180.774 91.571,178.625 90.640,176.097 89.661 C 173.569 88.681,171.425 87.781,171.333 87.659 C 171.118 87.373,163.284 85.185,159.833 84.448 C 158.367 84.134,157.092 83.777,157.000 83.655 C 156.802 83.391,149.334 82.205,143.000 81.431 C 138.988 80.941,131.257 80.869,71.667 80.766 L 4.833 80.651 3.756 81.409 M106.333 139.380 C 108.075 139.575,109.575 139.837,109.667 139.961 C 109.758 140.086,110.931 140.446,112.273 140.762 C 123.647 143.436,126.768 155.483,117.000 159.009 C 115.992 159.373,114.890 159.829,114.553 160.024 C 112.520 161.194,99.613 162.306,95.197 161.692 C 89.821 160.944,89.595 160.437,89.733 149.391 L 89.833 141.303 90.952 140.327 C 91.999 139.413,92.669 139.185,95.167 138.892 C 96.679 138.715,102.768 138.981,106.333 139.380 M104.667 225.337 C 111.685 225.759,119.316 227.059,120.000 227.950 C 120.092 228.069,121.347 228.753,122.791 229.470 C 124.948 230.542,125.570 231.036,126.291 232.250 C 126.772 233.061,127.413 234.016,127.713 234.372 C 128.772 235.622,128.889 240.693,127.884 241.759 C 127.672 241.983,127.138 242.705,126.696 243.363 C 125.401 245.294,120.636 247.667,118.054 247.667 C 117.731 247.667,117.279 247.854,117.050 248.083 C 116.733 248.400,113.938 248.500,105.377 248.500 L 94.120 248.500 92.252 247.556 C 91.225 247.037,90.266 246.362,90.121 246.056 C 89.541 244.827,89.575 228.023,90.159 227.131 C 91.402 225.234,95.184 224.766,104.667 225.337 " stroke="none" fill="#fc1c44" fill-rule="evenodd"></path><path id="path1" d="M299.167 79.892 C 271.314 81.272,260.063 81.399,242.333 80.531 C 230.125 79.933,220.123 79.843,218.871 80.319 C 216.512 81.216,216.499 85.990,218.679 148.500 C 219.050 159.133,219.518 172.558,219.719 178.333 C 219.920 184.108,220.137 198.958,220.200 211.333 C 220.263 223.708,220.356 237.433,220.407 241.833 C 220.458 246.233,220.459 263.979,220.409 281.269 C 220.309 316.175,220.194 314.227,222.481 316.333 L 223.386 317.167 232.943 317.248 C 238.199 317.293,250.150 317.098,259.500 316.816 C 305.707 315.419,314.709 315.616,367.664 319.179 C 389.347 320.637,387.767 320.645,389.341 319.071 C 390.060 318.352,390.754 317.241,390.955 316.488 C 392.244 311.663,394.172 296.202,395.859 277.167 C 396.136 274.050,396.498 270.075,396.665 268.333 C 396.832 266.592,397.073 259.081,397.201 251.643 L 397.433 238.119 396.470 237.226 C 395.190 236.040,393.609 236.054,387.544 237.306 C 384.953 237.841,380.733 238.598,378.167 238.987 C 375.600 239.377,373.250 239.832,372.945 239.999 C 371.859 240.594,351.021 242.985,342.167 243.530 C 340.150 243.654,338.350 243.868,338.167 244.004 C 337.584 244.439,310.841 245.507,309.871 245.135 C 308.638 244.662,307.949 242.365,307.580 237.500 C 306.669 225.480,307.269 156.176,308.320 152.000 C 308.482 151.358,308.936 143.708,309.329 135.000 C 310.530 108.414,311.898 85.761,312.353 84.921 C 312.770 84.152,312.755 82.000,312.333 82.000 C 312.150 82.000,312.000 81.775,312.000 81.500 C 312.000 79.722,309.335 79.388,299.167 79.892 " stroke="none" fill="#040404" fill-rule="evenodd"></path><path id="path2" d="" stroke="none" fill="#1001024" fill-rule="evenodd"></path><path id="path3" d="" stroke="none" fill="#1001024" fill-rule="evenodd"></path><path id="path4" d="" stroke="none" fill="#1001024" fill-rule="evenodd"></path></g></svg>